# Blender 4.1.1
# www.blender.org
mtllib Ground.mtl
o 円
v 0.000000 0.000000 500.000000
v 97.545158 0.000000 490.392639
v 191.341721 0.000000 461.939758
v 277.785126 0.000000 415.734802
v 353.553375 0.000000 353.553375
v 415.734802 0.000000 277.785126
v 461.939758 0.000000 191.341721
v 490.392639 0.000000 97.545158
v 500.000000 0.000000 0.000000
v 490.392639 0.000000 -97.545158
v 461.939758 0.000000 -191.341721
v 415.734802 0.000000 -277.785126
v 353.553375 0.000000 -353.553375
v 277.785126 0.000000 -415.734802
v 191.341721 0.000000 -461.939758
v 97.545158 0.000000 -490.392639
v 0.000000 0.000000 -500.000000
v -97.545158 0.000000 -490.392639
v -191.341721 0.000000 -461.939758
v -277.785126 0.000000 -415.734802
v -353.553375 0.000000 -353.553375
v -415.734802 0.000000 -277.785126
v -461.939758 0.000000 -191.341721
v -490.392639 0.000000 -97.545158
v -500.000000 0.000000 0.000000
v -490.392639 0.000000 97.545158
v -461.939758 0.000000 191.341721
v -415.734802 0.000000 277.785126
v -353.553375 0.000000 353.553375
v -277.785126 0.000000 415.734802
v -191.341721 0.000000 461.939758
v -97.545158 0.000000 490.392639
vn -0.0000 1.0000 -0.0000
vt 0.019311 0.645816
vt 0.354184 0.019311
vt 0.980689 0.354184
vt 0.999900 0.450764
vt 0.999900 0.549236
vt 0.980689 0.645815
vt 0.943006 0.736791
vt 0.888298 0.818668
vt 0.818668 0.888298
vt 0.736792 0.943006
vt 0.645816 0.980689
vt 0.549236 0.999900
vt 0.450764 0.999900
vt 0.354185 0.980689
vt 0.263209 0.943006
vt 0.181332 0.888298
vt 0.111702 0.818668
vt 0.056994 0.736792
vt 0.000100 0.549236
vt 0.000100 0.450764
vt 0.019311 0.354185
vt 0.056994 0.263209
vt 0.111702 0.181332
vt 0.181332 0.111702
vt 0.263208 0.056994
vt 0.450764 0.000100
vt 0.549236 0.000100
vt 0.645815 0.019311
vt 0.736791 0.056994
vt 0.818667 0.111702
vt 0.888298 0.181332
vt 0.943006 0.263208
s 1
usemtl マテリアル
f 17/1/1 25/2/1 1/3/1
f 1/3/1 2/4/1 3/5/1
f 3/5/1 4/6/1 5/7/1
f 5/7/1 6/8/1 7/9/1
f 7/9/1 8/10/1 9/11/1
f 9/11/1 10/12/1 11/13/1
f 11/13/1 12/14/1 13/15/1
f 13/15/1 14/16/1 15/17/1
f 15/17/1 16/18/1 17/1/1
f 17/1/1 18/19/1 19/20/1
f 19/20/1 20/21/1 21/22/1
f 21/22/1 22/23/1 23/24/1
f 23/24/1 24/25/1 25/2/1
f 25/2/1 26/26/1 27/27/1
f 27/27/1 28/28/1 29/29/1
f 29/29/1 30/30/1 31/31/1
f 31/31/1 32/32/1 1/3/1
f 1/3/1 3/5/1 5/7/1
f 5/7/1 7/9/1 9/11/1
f 9/11/1 11/13/1 13/15/1
f 13/15/1 15/17/1 17/1/1
f 17/1/1 19/20/1 21/22/1
f 21/22/1 23/24/1 25/2/1
f 25/2/1 27/27/1 29/29/1
f 29/29/1 31/31/1 1/3/1
f 1/3/1 5/7/1 9/11/1
f 9/11/1 13/15/1 17/1/1
f 17/1/1 21/22/1 25/2/1
f 25/2/1 29/29/1 1/3/1
f 1/3/1 9/11/1 17/1/1
